<svg version="1.1" xmlns="http://www.w3.org/2000/svg" x="0" y="0" width="612" height="119.173" viewBox="22.6 413.714 612 119.173" xml:space="preserve"><path fill="#3491CF" d="M80.729 489.728l-13.803-36.16-14.581 36.16m-4.278 9.526c-4.083 11.858-7.971 21.385-10.887 32.077-2.527-.194-4.86-.389-7.193-.389-2.333 0-5.054.389-7.387.389l44.325-107.313c1.944.389 3.888.389 5.832.389s3.888-.194 5.833-.389l43.159 107.702c-4.471-.389-8.748-.777-13.414-.777s-8.749.389-13.414.777c-3.5-11.47-6.805-21.968-11.082-32.466H48.067zm95.067-4.666c0 8.942 1.167 28.384 13.608 28.384 13.415 0 14.97-20.219 14.97-30.134 0-8.942-1.361-27.801-13.803-27.801-13.22 0-14.775 19.83-14.775 29.551m49.38 36.937c-3.5-.389-6.804-.777-10.304-.777s-6.999.389-10.304.777v-13.608c-3.305 9.137-11.082 14.97-21.19 14.97-22.94 0-30.522-18.858-30.522-38.882 0-19.636 9.526-39.076 29.939-39.076 9.137 0 16.525 3.11 20.996 11.081v-52.296c3.5.389 7.193.777 10.693.777 3.499 0 7.193-.389 10.692-.777v117.811zm39.854-21.384c6.61-17.691 13.22-35.577 18.857-53.852 1.944.389 4.083.389 6.221.389 1.944 0 4.083-.194 6.027-.389.194 1.556-.583 2.722-1.167 3.694-2.917 6.026-5.443 11.858-7.971 18.08-6.999 17.302-14.386 34.604-20.218 53.268-2.722-.389-5.249-.777-7.971-.777s-5.249.389-7.971.777l-27.217-75.236c4.083.389 7.971.777 11.859.777 4.083 0 7.971-.389 11.859-.777m89.234 30.522c0-8.165-.972-24.69-10.304-24.69-11.276 0-12.442 16.525-12.637 24.69m.001 7.388c-.389 15.941 5.055 28.772 21.58 28.772 6.416 0 13.415-2.916 18.08-6.999l1.944 1.361-3.499 8.748c-6.222 4.277-14.581 6.999-22.163 6.999-25.662 0-38.882-15.553-38.882-40.826 0-21.773 13.025-37.132 35.577-37.132 24.301 0 33.438 16.913 31.688 39.076H280.97v.001zm50.935-37.522c3.499.389 7.192.778 10.692.778 3.499 0 7.193-.39 10.692-.778v19.247c3.305-11.276 10.109-20.607 25.273-20.607-.778 7.192-1.167 14.386-.778 20.996l-1.36 1.166c-1.944-1.36-5.443-1.943-7.971-1.943-6.805 0-12.442 3.499-14.192 10.303-1.36 4.472-.972 13.025-.972 17.886v27.995c-3.499-.389-7.193-.777-10.692-.777-3.5 0-7.193.389-10.692.777m77.764-20.997c0 10.692.583 16.524 14.386 12.831v6.026c-5.832 2.139-11.275 3.5-16.136 3.5-16.136 0-19.636-10.692-19.636-25.079v-41.604h-10.498c.389-3.499.389-6.415 0-9.915h10.498v-17.497c6.999-2.722 13.998-6.026 21.386-9.525v27.217h13.22c-.389 3.5-.389 6.416 0 9.915h-13.22m25.468-50.545c13.414 0 19.052 5.638 19.052 12.247 0 6.61-5.832 12.248-12.442 12.248-6.609 0-12.054-5.832-12.054-12.248-.001-6.61 5.444-12.247 5.444-12.247m-3.889 40.63c3.499.389 7.193.778 10.692.778 3.5 0 7.193-.39 10.692-.778v75.236c-3.499-.389-7.192-.777-10.692-.777-3.499 0-7.193.389-10.692.777v-75.236zm34.605 55.408c2.722 7.776 9.332 13.22 17.691 13.22 5.443 0 11.859-4.083 11.859-9.526 0-14.581-35.771-8.942-35.771-35.966 0-15.747 12.637-24.689 26.634-24.689 7.776 0 16.331 2.527 22.552 7.192l-3.693 13.609h-4.277c-1.167-6.61-7.776-13.025-14.775-13.025-5.638 0-11.47 2.722-11.47 8.942 0 14.97 36.354 7.388 36.354 36.354 0 14.387-11.081 24.885-29.939 24.885-7.582 0-14.969-1.944-21.385-6.416.972-5.055 1.75-9.721 2.333-14.774m97.981-25.08c0-8.165-.973-24.69-10.304-24.69-11.276 0-12.442 16.525-12.637 24.69m.001 7.388c-.389 15.941 5.055 28.772 21.579 28.772 6.416 0 13.414-2.916 18.08-6.999l1.944 1.361-3.499 8.748c-6.222 4.277-14.581 6.999-22.163 6.999-25.662 0-38.882-15.553-38.882-40.826 0-21.773 13.025-37.132 35.577-37.132 24.301 0 33.438 16.913 31.688 39.076h-44.324zm50.934-37.522c3.5.389 7.193.778 10.693.778 3.499 0 7.192-.39 10.692-.778v19.247c3.305-11.276 10.109-20.607 25.272-20.607-.777 7.192-1.166 14.386-.777 20.996l-1.36 1.166c-1.944-1.36-5.443-1.943-7.972-1.943-6.804 0-12.441 3.499-14.191 10.303-1.36 4.472-.972 13.025-.972 17.886v27.995c-3.5-.389-7.193-.777-10.692-.777-3.5 0-7.193.389-10.693.777"/></svg>